<?xml version="1.0" encoding="UTF-8" standalone="no"?>
<svg
   version="1.1"
   width="568.17724609375"
   height="377"
   id="svg379"
   sodipodi:docname="HasznalatiEset.svg"
   inkscape:version="1.3.2 (091e20e, 2023-11-25, custom)"
   xmlns:inkscape="http://www.inkscape.org/namespaces/inkscape"
   xmlns:sodipodi="http://sodipodi.sourceforge.net/DTD/sodipodi-0.dtd"
   xmlns="http://www.w3.org/2000/svg"
   xmlns:svg="http://www.w3.org/2000/svg">
  <sodipodi:namedview
     id="namedview379"
     pagecolor="#ffffff"
     bordercolor="#000000"
     borderopacity="0.25"
     inkscape:showpageshadow="2"
     inkscape:pageopacity="0.0"
     inkscape:pagecheckerboard="0"
     inkscape:deskcolor="#d1d1d1"
     inkscape:zoom="3.132626"
     inkscape:cx="284.58552"
     inkscape:cy="188.5"
     inkscape:window-width="2560"
     inkscape:window-height="1377"
     inkscape:window-x="1912"
     inkscape:window-y="-8"
     inkscape:window-maximized="1"
     inkscape:current-layer="g379" />
  <defs
     id="defs1" />
  <g
     id="g379">
    <g
       id="g288"
       style="fill:#fff6d5">
      <path
         fill="#ffffff"
         stroke="none"
         paint-order="stroke fill markers"
         d=" M 26.748623046874997 147.85000000000002 C 26.748623046874997 142.96227952000004 30.706425414875 139 35.588623046875 139 C 40.470820678875 139 44.428623046875 142.96227952000004 44.428623046875 147.85000000000002 C 44.428623046875 152.73772048 40.470820678875 156.7 35.588623046875 156.7 C 30.706425414875 156.7 26.748623046874997 152.73772048 26.748623046874997 147.85000000000002 Z"
         id="path288"
         style="fill:#fff6d5" />
    </g>
    <g
       id="g289">
      <path
         fill="none"
         stroke="#000000"
         paint-order="fill stroke markers"
         d=" M 26.748623046874997 147.85000000000002 C 26.748623046874997 142.96227952000004 30.706425414875 139 35.588623046875 139 C 40.470820678875 139 44.428623046875 142.96227952000004 44.428623046875 147.85000000000002 C 44.428623046875 152.73772048 40.470820678875 156.7 35.588623046875 156.7 C 30.706425414875 156.7 26.748623046874997 152.73772048 26.748623046874997 147.85000000000002 Z"
         stroke-miterlimit="10"
         stroke-dasharray=""
         id="path289" />
    </g>
    <g
       id="g290">
      <path
         fill="none"
         stroke="#000000"
         paint-order="fill stroke markers"
         d=" M 35.588623046875 156.7 L 35.588623046875 174.3"
         stroke-miterlimit="10"
         stroke-dasharray=""
         id="path290" />
    </g>
    <g
       id="g291">
      <path
         fill="none"
         stroke="#000000"
         paint-order="fill stroke markers"
         d=" M 26.228623046875 163.3 L 44.948623046875014 163.3"
         stroke-miterlimit="10"
         stroke-dasharray=""
         id="path291" />
    </g>
    <g
       id="g292">
      <path
         fill="none"
         stroke="#000000"
         paint-order="fill stroke markers"
         d=" M 35.588623046875 174.3 L 22.588623046875 192"
         stroke-miterlimit="10"
         stroke-dasharray=""
         id="path292" />
    </g>
    <g
       id="g293">
      <path
         fill="none"
         stroke="#000000"
         paint-order="fill stroke markers"
         d=" M 35.588623046875 174.3 L 48.588623046875 192"
         stroke-miterlimit="10"
         stroke-dasharray=""
         id="path293" />
    </g>
    <g
       id="g295">
      <g
         id="g294">
        <path
           fill="none"
           stroke="none"
           id="path294" />
        <text
           fill="#000000"
           stroke="none"
           font-family="Arial"
           font-size="13px"
           font-style="normal"
           font-weight="bold"
           text-decoration="undefined"
           x="122.088623046875"
           y="388.5"
           text-anchor="middle"
           dominant-baseline="central"
           transform="matrix(1 0 0 1 -86 -182)"
           id="text294">Elf</text>
      </g>
    </g>
    <g
       id="g296"
       style="fill:#fff6d5">
      <path
         fill="#ffffff"
         stroke="none"
         paint-order="stroke fill markers"
         d=" M 522.748623046875 147.85000000000002 C 522.748623046875 142.96227952000004 526.706425414875 139 531.588623046875 139 C 536.470820678875 139 540.428623046875 142.96227952000004 540.428623046875 147.85000000000002 C 540.428623046875 152.73772048 536.470820678875 156.7 531.588623046875 156.7 C 526.706425414875 156.7 522.748623046875 152.73772048 522.748623046875 147.85000000000002 Z"
         id="path295"
         style="fill:#fff6d5" />
    </g>
    <g
       id="g297">
      <path
         fill="none"
         stroke="#000000"
         paint-order="fill stroke markers"
         d=" M 522.748623046875 147.85000000000002 C 522.748623046875 142.96227952000004 526.706425414875 139 531.588623046875 139 C 536.470820678875 139 540.428623046875 142.96227952000004 540.428623046875 147.85000000000002 C 540.428623046875 152.73772048 536.470820678875 156.7 531.588623046875 156.7 C 526.706425414875 156.7 522.748623046875 152.73772048 522.748623046875 147.85000000000002 Z"
         stroke-miterlimit="10"
         stroke-dasharray=""
         id="path296" />
    </g>
    <g
       id="g298">
      <path
         fill="none"
         stroke="#000000"
         paint-order="fill stroke markers"
         d=" M 531.588623046875 156.7 L 531.588623046875 174.3"
         stroke-miterlimit="10"
         stroke-dasharray=""
         id="path297" />
    </g>
    <g
       id="g299">
      <path
         fill="none"
         stroke="#000000"
         paint-order="fill stroke markers"
         d=" M 522.228623046875 163.3 L 540.948623046875 163.3"
         stroke-miterlimit="10"
         stroke-dasharray=""
         id="path298" />
    </g>
    <g
       id="g300">
      <path
         fill="none"
         stroke="#000000"
         paint-order="fill stroke markers"
         d=" M 531.588623046875 174.3 L 518.588623046875 192"
         stroke-miterlimit="10"
         stroke-dasharray=""
         id="path299" />
    </g>
    <g
       id="g301">
      <path
         fill="none"
         stroke="#000000"
         paint-order="fill stroke markers"
         d=" M 531.588623046875 174.3 L 544.588623046875 192"
         stroke-miterlimit="10"
         stroke-dasharray=""
         id="path300" />
    </g>
    <g
       id="g303">
      <g
         id="g302">
        <path
           fill="none"
           stroke="none"
           id="path301" />
        <text
           fill="#000000"
           stroke="none"
           font-family="Arial"
           font-size="13px"
           font-style="normal"
           font-weight="bold"
           text-decoration="undefined"
           x="618.088623046875"
           y="388.5"
           text-anchor="middle"
           dominant-baseline="central"
           transform="matrix(1 0 0 1 -86 -182)"
           id="text301">Ork</text>
      </g>
    </g>
    <g
       id="g304">
      <path
         fill="#C0C0C0"
         stroke="none"
         paint-order="stroke fill markers"
         d=" M 241 98.5 C 241 88.835016 263.8334752 81 292 81 C 320.1665248 81 343 88.835016 343 98.5 C 343 108.164984 320.1665248 116 292 116 C 263.8334752 116 241 108.164984 241 98.5 Z"
         fill-opacity="0.2"
         id="path303" />
    </g>
    <g
       id="g305"
       style="fill:#fff6d5">
      <path
         fill="#ffffff"
         stroke="none"
         paint-order="stroke fill markers"
         d=" M 234 91.5 C 234 81.835016 256.8334752 74 285 74 C 313.1665248 74 336 81.835016 336 91.5 C 336 101.164984 313.1665248 109 285 109 C 256.8334752 109 234 101.164984 234 91.5 Z"
         id="path304"
         style="fill:#fff6d5" />
    </g>
    <g
       id="g306">
      <path
         fill="none"
         stroke="#000000"
         paint-order="fill stroke markers"
         d=" M 234 91.5 C 234 81.835016 256.8334752 74 285 74 C 313.1665248 74 336 81.835016 336 91.5 C 336 101.164984 313.1665248 109 285 109 C 256.8334752 109 234 101.164984 234 91.5 Z"
         stroke-miterlimit="10"
         stroke-dasharray=""
         id="path305" />
    </g>
    <g
       id="g308">
      <g
         id="g307">
        <path
           fill="none"
           stroke="none"
           id="path306" />
        <text
           fill="#000000"
           stroke="none"
           font-family="Arial"
           font-size="13px"
           font-style="normal"
           font-weight="bold"
           text-decoration="undefined"
           x="371"
           y="274.5"
           text-anchor="middle"
           dominant-baseline="central"
           transform="matrix(1 0 0 1 -86 -182)"
           id="text306">Támad</text>
      </g>
    </g>
    <g
       id="g309">
      <path
         fill="#C0C0C0"
         stroke="none"
         paint-order="stroke fill markers"
         d=" M 241 162.5 C 241 152.835016 264.0573328 145 292.5 145 C 320.9426672 145 344 152.835016 344 162.5 C 344 172.164984 320.9426672 180 292.5 180 C 264.0573328 180 241 172.164984 241 162.5 Z"
         fill-opacity="0.2"
         id="path308" />
    </g>
    <g
       id="g310"
       style="fill:#fff6d5">
      <path
         fill="#ffffff"
         stroke="none"
         paint-order="stroke fill markers"
         d=" M 234 155.5 C 234 145.835016 257.0573328 138 285.5 138 C 313.9426672 138 337 145.835016 337 155.5 C 337 165.164984 313.9426672 173 285.5 173 C 257.0573328 173 234 165.164984 234 155.5 Z"
         id="path309"
         style="fill:#fff6d5" />
    </g>
    <g
       id="g311">
      <path
         fill="none"
         stroke="#000000"
         paint-order="fill stroke markers"
         d=" M 234 155.5 C 234 145.835016 257.0573328 138 285.5 138 C 313.9426672 138 337 145.835016 337 155.5 C 337 165.164984 313.9426672 173 285.5 173 C 257.0573328 173 234 165.164984 234 155.5 Z"
         stroke-miterlimit="10"
         stroke-dasharray=""
         id="path310" />
    </g>
    <g
       id="g313">
      <g
         id="g312">
        <path
           fill="none"
           stroke="none"
           id="path311" />
        <text
           fill="#000000"
           stroke="none"
           font-family="Arial"
           font-size="13px"
           font-style="normal"
           font-weight="bold"
           text-decoration="undefined"
           x="371.5"
           y="338.5"
           text-anchor="middle"
           dominant-baseline="central"
           transform="matrix(1 0 0 1 -86 -182)"
           id="text311">Védekezik</text>
      </g>
    </g>
    <g
       id="g314">
      <path
         fill="#C0C0C0"
         stroke="none"
         paint-order="stroke fill markers"
         d=" M 241 226.5 C 241 216.835016 263.8334752 209 292 209 C 320.1665248 209 343 216.835016 343 226.5 C 343 236.164984 320.1665248 244 292 244 C 263.8334752 244 241 236.164984 241 226.5 Z"
         fill-opacity="0.2"
         id="path313" />
    </g>
    <g
       id="g315"
       style="fill:#fff6d5">
      <path
         fill="#ffffff"
         stroke="none"
         paint-order="stroke fill markers"
         d=" M 234 219.5 C 234 209.835016 256.8334752 202 285 202 C 313.1665248 202 336 209.835016 336 219.5 C 336 229.164984 313.1665248 237 285 237 C 256.8334752 237 234 229.164984 234 219.5 Z"
         id="path314"
         style="fill:#fff6d5" />
    </g>
    <g
       id="g316">
      <path
         fill="none"
         stroke="#000000"
         paint-order="fill stroke markers"
         d=" M 234 219.5 C 234 209.835016 256.8334752 202 285 202 C 313.1665248 202 336 209.835016 336 219.5 C 336 229.164984 313.1665248 237 285 237 C 256.8334752 237 234 229.164984 234 219.5 Z"
         stroke-miterlimit="10"
         stroke-dasharray=""
         id="path315" />
    </g>
    <g
       id="g318">
      <g
         id="g317">
        <path
           fill="none"
           stroke="none"
           id="path316" />
        <text
           fill="#000000"
           stroke="none"
           font-family="Arial"
           font-size="13px"
           font-style="normal"
           font-weight="bold"
           text-decoration="undefined"
           x="371"
           y="402.5"
           text-anchor="middle"
           dominant-baseline="central"
           transform="matrix(1 0 0 1 -86 -182)"
           id="text316">Meghal</text>
      </g>
    </g>
    <g
       id="g319">
      <path
         fill="#C0C0C0"
         stroke="none"
         paint-order="stroke fill markers"
         d=" M 225 34.5 C 225 24.835015999999996 256.5639216 17 295.5 17 C 334.4360784 17 366 24.835015999999996 366 34.5 C 366 44.164984000000004 334.4360784 52 295.5 52 C 256.5639216 52 225 44.164984000000004 225 34.5 Z"
         fill-opacity="0.2"
         id="path318" />
    </g>
    <g
       id="g320">
      <path
         fill="#ffffff"
         stroke="none"
         paint-order="stroke fill markers"
         d=" M 218 27.5 C 218 17.835015999999996 249.56392160000001 10 288.5 10 C 327.4360784 10 359 17.835015999999996 359 27.5 C 359 37.164984000000004 327.4360784 45 288.5 45 C 249.56392160000001 45 218 37.164984000000004 218 27.5 Z"
         id="path319" />
    </g>
    <g
       id="g321"
       style="fill:#fff6d5">
      <path
         fill="none"
         stroke="#000000"
         paint-order="fill stroke markers"
         d=" M 218 27.5 C 218 17.835015999999996 249.56392160000001 10 288.5 10 C 327.4360784 10 359 17.835015999999996 359 27.5 C 359 37.164984000000004 327.4360784 45 288.5 45 C 249.56392160000001 45 218 37.164984000000004 218 27.5 Z"
         stroke-miterlimit="10"
         stroke-dasharray=""
         id="path320"
         style="fill:#fff6d5" />
    </g>
    <g
       id="g323">
      <g
         id="g322">
        <path
           fill="none"
           stroke="none"
           id="path321" />
        <text
           fill="#000000"
           stroke="none"
           font-family="Arial"
           font-size="13px"
           font-style="normal"
           font-weight="bold"
           text-decoration="undefined"
           x="374.5"
           y="210.5"
           text-anchor="middle"
           dominant-baseline="central"
           transform="matrix(1 0 0 1 -86 -182)"
           id="text321">Kincset szerez</text>
      </g>
    </g>
    <g
       id="g324">
      <path
         fill="#C0C0C0"
         stroke="none"
         paint-order="stroke fill markers"
         d=" M 353 354.5 C 353 344.835016 382.7730608 337 419.5 337 C 456.22693920000006 337 486 344.835016 486 354.5 C 486 364.164984 456.22693920000006 372 419.5 372 C 382.7730608 372 353 364.164984 353 354.5 Z"
         fill-opacity="0.2"
         id="path323" />
    </g>
    <g
       id="g325"
       style="fill:#ffeeaa">
      <path
         fill="#ffffff"
         stroke="none"
         paint-order="stroke fill markers"
         d=" M 346 347.5 C 346 337.835016 375.7730608 330 412.5 330 C 449.22693920000006 330 479 337.835016 479 347.5 C 479 357.164984 449.22693920000006 365 412.5 365 C 375.7730608 365 346 357.164984 346 347.5 Z"
         id="path324"
         style="fill:#ffeeaa" />
    </g>
    <g
       id="g326"
       style="fill:#fff6d5">
      <path
         fill="none"
         stroke="#000000"
         paint-order="fill stroke markers"
         d=" M 346 347.5 C 346 337.835016 375.7730608 330 412.5 330 C 449.22693920000006 330 479 337.835016 479 347.5 C 479 357.164984 449.22693920000006 365 412.5 365 C 375.7730608 365 346 357.164984 346 347.5 Z"
         stroke-miterlimit="10"
         stroke-dasharray=""
         id="path325"
         style="fill:#fff6d5" />
    </g>
    <g
       id="g328">
      <g
         id="g327">
        <path
           fill="none"
           stroke="none"
           id="path326" />
        <text
           fill="#000000"
           stroke="none"
           font-family="Arial"
           font-size="13px"
           font-style="normal"
           font-weight="bold"
           text-decoration="undefined"
           x="498.5"
           y="530.5"
           text-anchor="middle"
           dominant-baseline="central"
           transform="matrix(1 0 0 1 -86 -182)"
           id="text326">Kincset átvált</text>
      </g>
    </g>
    <g
       id="g329">
      <path
         fill="#C0C0C0"
         stroke="none"
         paint-order="stroke fill markers"
         d=" M 113 354.5 C 113 344.835016 137.624336 337 168 337 C 198.37566400000003 337 223 344.835016 223 354.5 C 223 364.164984 198.37566400000003 372 168 372 C 137.624336 372 113 364.164984 113 354.5 Z"
         fill-opacity="0.2"
         id="path328" />
    </g>
    <g
       id="g330"
       style="fill:#fff6d5">
      <path
         fill="#ffffff"
         stroke="none"
         paint-order="stroke fill markers"
         d=" M 106 347.5 C 106 337.835016 130.624336 330 161 330 C 191.37566400000003 330 216 337.835016 216 347.5 C 216 357.164984 191.37566400000003 365 161 365 C 130.624336 365 106 357.164984 106 347.5 Z"
         id="path329"
         style="fill:#fff6d5" />
    </g>
    <g
       id="g331">
      <path
         fill="none"
         stroke="#000000"
         paint-order="fill stroke markers"
         d=" M 106 347.5 C 106 337.835016 130.624336 330 161 330 C 191.37566400000003 330 216 337.835016 216 347.5 C 216 357.164984 191.37566400000003 365 161 365 C 130.624336 365 106 357.164984 106 347.5 Z"
         stroke-miterlimit="10"
         stroke-dasharray=""
         id="path330" />
    </g>
    <g
       id="g333">
      <g
         id="g332">
        <path
           fill="none"
           stroke="none"
           id="path331" />
        <text
           fill="#000000"
           stroke="none"
           font-family="Arial"
           font-size="13px"
           font-style="normal"
           font-weight="bold"
           text-decoration="undefined"
           x="247"
           y="530.5"
           text-anchor="middle"
           dominant-baseline="central"
           transform="matrix(1 0 0 1 -86 -182)"
           id="text331">Elixirt iszik</text>
      </g>
    </g>
    <g
       id="g334">
      <path
         fill="none"
         stroke="#000000"
         paint-order="fill stroke markers"
         d=" M 62 169 L 233 109"
         stroke-miterlimit="10"
         stroke-dasharray=""
         id="path333" />
    </g>
    <g
       id="g335">
      <path
         fill="none"
         stroke="#000000"
         paint-order="fill stroke markers"
         d=" M 62 175 L 233 160"
         stroke-miterlimit="10"
         stroke-dasharray=""
         id="path334" />
    </g>
    <g
       id="g336">
      <path
         fill="none"
         stroke="#000000"
         paint-order="fill stroke markers"
         d=" M 286 73 L 287 46"
         stroke-miterlimit="10"
         stroke-dasharray="3"
         id="path335" />
    </g>
    <g
       id="g337">
      <path
         fill="none"
         stroke="#000000"
         paint-order="fill stroke markers"
         d=" M 290.8304960648887 56.31151297806835 L 287 46 L 282.41722899170594 55.9999104938764"
         stroke-miterlimit="10"
         stroke-dasharray=""
         id="path336" />
    </g>
    <g
       id="g338">
      <rect
         fill="#ffffff"
         stroke="none"
         x="376"
         y="239"
         width="53.49169921875"
         height="13"
         transform="matrix(1 0 0 1 -86 -182)"
         id="rect337" />
    </g>
    <g
       id="g340">
      <g
         id="g339">
        <path
           fill="none"
           stroke="none"
           id="path338" />
        <text
           fill="#000000"
           stroke="none"
           font-family="Arial"
           font-size="13px"
           font-style="normal"
           font-weight="normal"
           text-decoration="undefined"
           x="402.745849609375"
           y="245.5"
           text-anchor="middle"
           dominant-baseline="central"
           transform="matrix(1 0 0 1 -86 -182)"
           id="text338">«extend»</text>
      </g>
    </g>
    <g
       id="g341">
      <path
         fill="none"
         stroke="#000000"
         paint-order="fill stroke markers"
         d=" M 285 110 L 285 137"
         stroke-miterlimit="10"
         stroke-dasharray="3"
         id="path340" />
    </g>
    <g
       id="g342">
      <path
         fill="none"
         stroke="#000000"
         paint-order="fill stroke markers"
         d=" M 280.790482243984 126.83732514237585 L 285 137 L 289.209517756016 126.83732514237585"
         stroke-miterlimit="10"
         stroke-dasharray=""
         id="path341" />
    </g>
    <g
       id="g343">
      <rect
         fill="#ffffff"
         stroke="none"
         x="374"
         y="298"
         width="52.0380859375"
         height="13"
         transform="matrix(1 0 0 1 -86 -182)"
         id="rect342" />
    </g>
    <g
       id="g345">
      <g
         id="g344">
        <path
           fill="none"
           stroke="none"
           id="path343" />
        <text
           fill="#000000"
           stroke="none"
           font-family="Arial"
           font-size="13px"
           font-style="normal"
           font-weight="normal"
           text-decoration="undefined"
           x="400.01904296875"
           y="304.5"
           text-anchor="middle"
           dominant-baseline="central"
           transform="matrix(1 0 0 1 -86 -182)"
           id="text343">«invoke»</text>
      </g>
    </g>
    <g
       id="g346">
      <path
         fill="none"
         stroke="#000000"
         paint-order="fill stroke markers"
         d=" M 285 174 L 285 201"
         stroke-miterlimit="10"
         stroke-dasharray="3"
         id="path345" />
    </g>
    <g
       id="g347">
      <path
         fill="none"
         stroke="#000000"
         paint-order="fill stroke markers"
         d=" M 280.790482243984 190.83732514237585 L 285 201 L 289.209517756016 190.83732514237585"
         stroke-miterlimit="10"
         stroke-dasharray=""
         id="path346" />
    </g>
    <g
       id="g348">
      <rect
         fill="#ffffff"
         stroke="none"
         x="374"
         y="362"
         width="53.49169921875"
         height="13"
         transform="matrix(1 0 0 1 -86 -182)"
         id="rect347" />
    </g>
    <g
       id="g350">
      <g
         id="g349">
        <path
           fill="none"
           stroke="none"
           id="path348" />
        <text
           fill="#000000"
           stroke="none"
           font-family="Arial"
           font-size="13px"
           font-style="normal"
           font-weight="normal"
           text-decoration="undefined"
           x="400.745849609375"
           y="368.5"
           text-anchor="middle"
           dominant-baseline="central"
           transform="matrix(1 0 0 1 -86 -182)"
           id="text348">«extend»</text>
      </g>
    </g>
    <g
       id="g351">
      <path
         fill="none"
         stroke="#000000"
         paint-order="fill stroke markers"
         d=" M 505 169 L 337 109"
         stroke-miterlimit="10"
         stroke-dasharray=""
         id="path350" />
    </g>
    <g
       id="g352">
      <path
         fill="none"
         stroke="#000000"
         paint-order="fill stroke markers"
         d=" M 505 176 L 338 160"
         stroke-miterlimit="10"
         stroke-dasharray=""
         id="path351" />
    </g>
    <g
       id="g353">
      <path
         fill="#C0C0C0"
         stroke="none"
         paint-order="stroke fill markers"
         d=" M 241 290.5 C 241 280.835016 263.8334752 273 292 273 C 320.1665248 273 343 280.835016 343 290.5 C 343 300.164984 320.1665248 308 292 308 C 263.8334752 308 241 300.164984 241 290.5 Z"
         fill-opacity="0.2"
         id="path352" />
    </g>
    <g
       id="g354"
       style="fill:#fff6d5">
      <path
         fill="#ffffff"
         stroke="none"
         paint-order="stroke fill markers"
         d=" M 234 283.5 C 234 273.835016 256.8334752 266 285 266 C 313.1665248 266 336 273.835016 336 283.5 C 336 293.164984 313.1665248 301 285 301 C 256.8334752 301 234 293.164984 234 283.5 Z"
         id="path353"
         style="fill:#fff6d5" />
    </g>
    <g
       id="g355">
      <path
         fill="none"
         stroke="#000000"
         paint-order="fill stroke markers"
         d=" M 234 283.5 C 234 273.835016 256.8334752 266 285 266 C 313.1665248 266 336 273.835016 336 283.5 C 336 293.164984 313.1665248 301 285 301 C 256.8334752 301 234 293.164984 234 283.5 Z"
         stroke-miterlimit="10"
         stroke-dasharray=""
         id="path354" />
    </g>
    <g
       id="g357">
      <g
         id="g356">
        <path
           fill="none"
           stroke="none"
           id="path355" />
        <text
           fill="#000000"
           stroke="none"
           font-family="Arial"
           font-size="13px"
           font-style="normal"
           font-weight="bold"
           text-decoration="undefined"
           x="371"
           y="466.5"
           text-anchor="middle"
           dominant-baseline="central"
           transform="matrix(1 0 0 1 -86 -182)"
           id="text355">Gyógyul</text>
      </g>
    </g>
    <g
       id="g358">
      <path
         fill="none"
         stroke="#000000"
         paint-order="fill stroke markers"
         d=" M 62 189 L 242 265"
         stroke-miterlimit="10"
         stroke-dasharray=""
         id="path357" />
    </g>
    <g
       id="g359">
      <path
         fill="none"
         stroke="#000000"
         paint-order="fill stroke markers"
         d=" M 345 347 L 217 347"
         stroke-miterlimit="10"
         stroke-dasharray="3"
         id="path358" />
    </g>
    <g
       id="g360">
      <path
         fill="none"
         stroke="#000000"
         paint-order="fill stroke markers"
         d=" M 227.16267485762415 342.790482243984 L 217 347 L 227.16267485762415 351.209517756016"
         stroke-miterlimit="10"
         stroke-dasharray=""
         id="path359" />
    </g>
    <g
       id="g361">
      <rect
         fill="#ffffff"
         stroke="none"
         x="336"
         y="536"
         width="61.43896484375"
         height="13"
         transform="matrix(1 0 0 1 -86 -182)"
         id="rect360" />
    </g>
    <g
       id="g363">
      <g
         id="g362">
        <path
           fill="none"
           stroke="none"
           id="path361" />
        <text
           fill="#000000"
           stroke="none"
           font-family="Arial"
           font-size="13px"
           font-style="normal"
           font-weight="normal"
           text-decoration="undefined"
           x="366.719482421875"
           y="542.5"
           text-anchor="middle"
           dominant-baseline="central"
           transform="matrix(1 0 0 1 -86 -182)"
           id="text361">«precede»</text>
      </g>
    </g>
    <g
       id="g364">
      <path
         fill="none"
         stroke="#000000"
         paint-order="fill stroke markers"
         d=" M 359 26 L 466 26 L 466 330"
         stroke-miterlimit="10"
         stroke-dasharray="3"
         id="path363" />
    </g>
    <g
       id="g365">
      <path
         fill="none"
         stroke="#000000"
         paint-order="fill stroke markers"
         d=" M 461.790482243984 319.83732514237585 L 466 330 L 470.209517756016 319.83732514237585"
         stroke-miterlimit="10"
         stroke-dasharray=""
         id="path364" />
    </g>
    <g
       id="g366">
      <rect
         fill="#ffffff"
         stroke="none"
         x="560"
         y="471"
         width="61.43896484375"
         height="13"
         transform="matrix(1 0 0 1 -86 -182)"
         id="rect365" />
    </g>
    <g
       id="g368">
      <g
         id="g367">
        <path
           fill="none"
           stroke="none"
           id="path366" />
        <text
           fill="#000000"
           stroke="none"
           font-family="Arial"
           font-size="13px"
           font-style="normal"
           font-weight="normal"
           text-decoration="undefined"
           x="590.719482421875"
           y="477.5"
           text-anchor="middle"
           dominant-baseline="central"
           transform="matrix(1 0 0 1 -86 -182)"
           id="text366">«precede»</text>
      </g>
    </g>
    <g
       id="g369">
      <path
         fill="none"
         stroke="#000000"
         paint-order="fill stroke markers"
         d=" M 248 302 L 196 329"
         stroke-miterlimit="10"
         stroke-dasharray="3"
         id="path368" />
    </g>
    <g
       id="g370">
      <path
         fill="none"
         stroke="#000000"
         paint-order="fill stroke markers"
         d=" M 203.07952400192102 320.5809537412944 L 196 329 L 206.9591441299852 328.05281472867733"
         stroke-miterlimit="10"
         stroke-dasharray=""
         id="path369" />
    </g>
    <g
       id="g371">
      <rect
         fill="#ffffff"
         stroke="none"
         x="264"
         y="479"
         width="53.49169921875"
         height="13"
         transform="matrix(1 0 0 1 -86 -182)"
         id="rect370" />
    </g>
    <g
       id="g373">
      <g
         id="g372">
        <path
           fill="none"
           stroke="none"
           id="path371" />
        <text
           fill="#000000"
           stroke="none"
           font-family="Arial"
           font-size="13px"
           font-style="normal"
           font-weight="normal"
           text-decoration="undefined"
           x="290.745849609375"
           y="485.5"
           text-anchor="middle"
           dominant-baseline="central"
           transform="matrix(1 0 0 1 -86 -182)"
           id="text371">«extend»</text>
      </g>
    </g>
    <g
       id="g374">
      <path
         fill="none"
         stroke="#000000"
         paint-order="fill stroke markers"
         d=" M 323 302 L 376 329"
         stroke-miterlimit="10"
         stroke-dasharray="3"
         id="path373" />
    </g>
    <g
       id="g375">
      <path
         fill="none"
         stroke="#000000"
         paint-order="fill stroke markers"
         d=" M 365.0338466713218 328.1377464572877 L 376 329 L 368.8554639449142 320.6360532906062"
         stroke-miterlimit="10"
         stroke-dasharray=""
         id="path374" />
    </g>
    <g
       id="g376">
      <rect
         fill="#ffffff"
         stroke="none"
         x="432"
         y="480"
         width="53.49169921875"
         height="13"
         transform="matrix(1 0 0 1 -86 -182)"
         id="rect375" />
    </g>
    <g
       id="g378">
      <g
         id="g377">
        <path
           fill="none"
           stroke="none"
           id="path376" />
        <text
           fill="#000000"
           stroke="none"
           font-family="Arial"
           font-size="13px"
           font-style="normal"
           font-weight="normal"
           text-decoration="undefined"
           x="458.745849609375"
           y="486.5"
           text-anchor="middle"
           dominant-baseline="central"
           transform="matrix(1 0 0 1 -86 -182)"
           id="text376">«extend»</text>
      </g>
    </g>
  </g>
</svg>
